<svg xmlns="http://www.w3.org/2000/svg" version="1.1" xmlns:xlink="http://www.w3.org/1999/xlink" xmlns:svgjs="http://svgjs.com/svgjs" width="200" height="200"><svg xmlns="http://www.w3.org/2000/svg" viewBox="0 0 200 200"><circle cx="51.787" cy="49.368" r="41" transform="rotate(5 129.519 -30.928)"></circle><path d="M100.233 136.604c2.445 3.883 4.263 4.76 6.962 4.627 10.977-.54 22.086-10.98 24.572-19.547.694-2.394.82-4.304-2.939-7.499l40.1 6.908c-6.209 1.59-10.065 8.652-13.234 14.301-5.936 10.58-19.108 23.431-34.894 30.3-7.313 3.182-17.025 6.738-20.853 13.774-6.387-.567.286-42.864.286-42.864Z"></path><circle cx="81.907" cy="162.51" r="41" transform="rotate(5 129.515 -30.927)"></circle><ellipse cx="164.577" cy="79.856" rx="41" ry="41.103" transform="rotate(5 129.518 -30.924)"></ellipse><circle cx="81.791" cy="162.855" r="29" style="fill:#776fed" transform="rotate(5 129.515 -30.927)"></circle><circle cx="164.461" cy="80.201" r="29" style="fill:#776fed" transform="rotate(5 129.518 -30.924)"></circle><circle cx="51.787" cy="49.368" r="29" style="fill:#776fed" transform="rotate(5 129.519 -30.928)"></circle><path d="M45.806 83.228c-4.585.176-6.253 1.312-7.487 3.716-5.02 9.777-1.534 24.617 4.642 31.053 1.726 1.798 3.317 2.862 7.964 1.204l-26.033 31.274c1.728-6.171-2.46-13.042-5.768-18.612-6.195-10.43-10.738-28.263-8.794-45.369.901-7.924 2.677-18.113-1.502-24.946 3.686-5.248 36.978 21.68 36.978 21.68ZM119.099 62.652c2.14-4.058 1.99-6.07.526-8.341-5.957-9.237-20.552-13.638-29.214-11.507-2.42.595-4.138 1.442-5.025 6.294L71.318 10.916c4.481 4.583 12.526 4.391 19.003 4.311 12.13-.15 29.845 4.833 43.687 15.069 6.412 4.742 14.348 11.375 22.355 11.172 2.702 5.816-37.264 21.184-37.264 21.184Z"></path></svg><style>@media (prefers-color-scheme: light) { :root { filter: none; } }
</style></svg>