<?xml version="1.0" standalone="no"?>
<!DOCTYPE svg PUBLIC "-//W3C//DTD SVG 20010904//EN"
 "http://www.w3.org/TR/2001/REC-SVG-20010904/DTD/svg10.dtd">
<svg version="1.0" xmlns="http://www.w3.org/2000/svg"
 width="320.000000pt" height="320.000000pt" viewBox="0 0 320.000000 320.000000"
 preserveAspectRatio="xMidYMid meet">
<metadata>
Created by potrace 1.14, written by Peter Selinger 2001-2017
</metadata>
<g transform="translate(0.000000,320.000000) scale(0.100000,-0.100000)"
fill="#000000" stroke="none">
<path d="M805 2840 c-184 -37 -341 -181 -397 -363 -16 -55 -19 -87 -16 -170 4
-91 8 -112 44 -197 36 -87 39 -103 39 -185 0 -49 -4 -140 -9 -200 -16 -198 21
-363 126 -565 64 -124 62 -115 57 -295 -3 -111 10 -165 64 -268 38 -72 143
-173 220 -210 111 -54 232 -68 346 -42 135 32 209 87 360 264 38 45 64 62 205
130 88 44 190 101 226 129 98 74 198 186 268 299 69 112 81 123 195 177 313
149 395 551 167 817 -46 55 -132 114 -203 141 -27 10 -94 25 -149 33 -114 16
-145 30 -278 125 -199 142 -393 210 -599 210 -114 0 -174 17 -242 68 -123 93
-280 131 -424 102z m245 -173 c67 -25 154 -109 190 -182 22 -43 25 -64 25
-155 0 -95 -3 -111 -28 -161 -33 -69 -109 -142 -181 -175 -182 -83 -402 3
-488 192 -18 40 -23 67 -22 144 0 84 3 102 28 154 87 179 285 255 476 183z
m652 -366 c65 -25 149 -96 168 -142 12 -27 11 -36 -10 -77 -116 -238 -84 -465
91 -644 54 -56 69 -78 69 -101 0 -49 -37 -112 -100 -170 -76 -71 -139 -101
-209 -102 -53 0 -56 1 -88 45 -106 141 -171 193 -296 235 -99 33 -200 34 -319
3 l-87 -22 -28 20 c-15 11 -43 51 -62 88 -30 58 -35 79 -39 157 -3 68 0 100
12 133 25 65 42 75 138 86 143 16 242 62 334 154 68 68 125 173 144 267 10 54
27 79 60 93 31 12 166 -2 222 -23z m680 -132 c77 -17 137 -50 190 -107 57 -61
83 -110 98 -190 32 -159 -59 -326 -215 -399 -51 -23 -73 -28 -145 -27 -74 0
-94 4 -150 30 -82 39 -145 101 -184 184 -27 57 -31 76 -31 150 0 74 4 93 31
150 76 161 239 244 406 209z m-1087 -980 c71 -26 126 -70 168 -131 128 -190
62 -441 -142 -540 -59 -29 -75 -33 -156 -33 -119 0 -191 32 -269 116 -76 82
-99 146 -94 264 3 79 8 98 38 153 90 168 274 237 455 171z"/>
</g>
</svg>
