<svg xmlns="http://www.w3.org/2000/svg" viewBox="0 0 200 200"><circle cx="51.787" cy="49.368" r="41" transform="rotate(5 129.519 -30.928)"/><path d="M99.784 139.561c2.774 3.655 4.365 4.356 7.042 3.988 10.889-1.495 21.026-13.084 22.756-21.835.483-2.445.442-4.359-3.581-7.214l36.518 4.957c-6.047 2.124-7.048 7.457-10.016 13.214-5.683 11.024-19.027 26.418-34.154 34.637-7.008 3.807-10.845 4.285-14.045 11.628-6.413-.009-4.52-39.375-4.52-39.375Z" transform="rotate(5 131.02 146.718)"/><circle cx="81.907" cy="162.51" r="41" transform="rotate(5 129.515 -30.927)"/><ellipse cx="164.577" cy="79.856" rx="41" ry="41.103" transform="rotate(5 129.518 -30.924)"/><circle cx="81.791" cy="162.855" r="30" style="fill:#776fed" transform="rotate(5 129.515 -30.927)"/><circle cx="164.461" cy="80.201" r="30" style="fill:#776fed" transform="rotate(5 129.518 -30.924)"/><circle cx="51.787" cy="49.368" r="30" style="fill:#776fed" transform="rotate(5 129.519 -30.928)"/><path d="M81.337 23.796c2.774 3.655 4.365 4.356 7.042 3.988 10.889-1.495 21.026-13.084 22.756-21.835.483-2.445.442-4.359-3.581-7.214l36.518 4.957c-6.047 2.124-7.048 7.457-10.016 13.214-5.683 11.024-19.027 26.418-34.154 34.637-7.008 3.807-10.845 4.285-14.045 11.628-6.413-.009-4.52-39.375-4.52-39.375Z" transform="rotate(-115 112.574 30.953)"/><path d="M-9.59 97.64c2.774 3.655 4.365 4.356 7.042 3.988 10.889-1.495 21.026-13.084 22.756-21.835.483-2.445.442-4.359-3.581-7.214l36.518 4.957c-6.047 2.124-7.048 7.457-10.016 13.214-5.683 11.024-19.027 26.418-34.154 34.637-7.008 3.807-10.845 4.285-14.045 11.628-6.413-.009-4.52-39.375-4.52-39.375Z" transform="rotate(125 21.647 104.797)"/></svg>